<?xml version="1.0" encoding="us-ascii" standalone="no"?><svg xmlns="http://www.w3.org/2000/svg" xmlns:xlink="http://www.w3.org/1999/xlink" contentStyleType="text/css" height="650px" preserveAspectRatio="none" style="width:517px;height:650px;background:#FFFFFF;" version="1.1" viewBox="0 0 517 650" width="517px" zoomAndPan="magnify"><defs/><g><rect fill="#FFFFFF" height="126.1641" style="stroke:#181818;stroke-width:1.0;" width="10" x="30" y="98.6211"/><rect fill="#FFFFFF" height="93.873" style="stroke:#181818;stroke-width:1.0;" width="10" x="130" y="121.9121"/><rect fill="#FFFFFF" height="31.291" style="stroke:#181818;stroke-width:1.0;" width="10" x="263" y="153.2031"/><line style="stroke:#181818;stroke-width:0.5;stroke-dasharray:5.0,5.0;" x1="35" x2="35" y1="88.6211" y2="233.7852"/><line style="stroke:#181818;stroke-width:0.5;stroke-dasharray:5.0,5.0;" x1="134.5" x2="134.5" y1="88.6211" y2="233.7852"/><line style="stroke:#181818;stroke-width:0.5;stroke-dasharray:5.0,5.0;" x1="268" x2="268" y1="88.6211" y2="233.7852"/><line style="stroke:#181818;stroke-width:0.5;stroke-dasharray:5.0,5.0;" x1="384" x2="384" y1="88.6211" y2="233.7852"/><rect fill="none" height="82.6211" rx="2.5" ry="2.5" style="stroke:none;stroke-width:0.5;" width="60" x="5" y="5"/><path d="M35,36.89 C28.97,36.89 23.6,31.85 23.6,24.13 C23.6,18.14 28.14,12 34.79,12 C41.28,12 46.03,17.94 46.03,24.42 C46.03,31.91 40.43,36.89 35,36.89 M12,62 C12.52,56.48 13.22,48.94 14.54,45.13 C15.15,43.4 16.04,42.16 17.47,41.12 C18.4,40.43 21.7,38.61 22.31,38.31 C23.37,37.76 24.46,37.47 25.4,38.31 C31,43.26 38.74,43.11 44.42,38.33 C45.08,37.65 46.12,37.83 46.81,38.1 C47.9,38.52 51.38,40.57 52.04,40.99 C53.96,42.25 55,43.93 55.77,47.09 C56.75,51.36 57.33,56.79 58,62 " fill="#505050" style="stroke:;stroke-width:0.0;stroke-dasharray:;"/><text fill="#000000" font-family="sans-serif" font-size="14" lengthAdjust="spacing" textLength="29" x="22.5" y="77.1074">User</text><rect fill="none" height="82.6211" rx="2.5" ry="2.5" style="stroke:none;stroke-width:0.5;" width="60" x="5" y="232.7852"/><path d="M35,264.6752 C28.97,264.6752 23.6,259.6352 23.6,251.9152 C23.6,245.9252 28.14,239.7852 34.79,239.7852 C41.28,239.7852 46.03,245.7252 46.03,252.2052 C46.03,259.6952 40.43,264.6752 35,264.6752 M12,289.7852 C12.52,284.2652 13.22,276.7252 14.54,272.9152 C15.15,271.1852 16.04,269.9452 17.47,268.9052 C18.4,268.2152 21.7,266.3952 22.31,266.0952 C23.37,265.5452 24.46,265.2552 25.4,266.0952 C31,271.0452 38.74,270.8952 44.42,266.1152 C45.08,265.4352 46.12,265.6152 46.81,265.8852 C47.9,266.3052 51.38,268.3552 52.04,268.7752 C53.96,270.0352 55,271.7152 55.77,274.8752 C56.75,279.1452 57.33,284.5752 58,289.7852 " fill="#505050" style="stroke:;stroke-width:0.0;stroke-dasharray:;"/><text fill="#000000" font-family="sans-serif" font-size="14" lengthAdjust="spacing" textLength="29" x="22.5" y="304.8926">User</text><rect fill="none" height="77.6211" rx="2.5" ry="2.5" style="stroke:none;stroke-width:0.5;" width="69" x="100.5" y="10"/><path d="M155.038,29.107 L154.638,29.107 L137.138,29.107 C133.122,28.473 129.739,29.64 126.988,32.607 A15.172,15.172 0 0 0 125.438,35.007 A391.45,391.45 0 0 0 116.038,27.907 A0.3,0.3 0 0 0 115.838,27.707 C119.336,22.187 124.303,18.737 130.738,17.357 C139.254,16.006 146.404,18.49 152.188,24.807 A20.62,20.62 0 0 1 155.038,29.107 " fill="#D31A1A" style="stroke:;stroke-width:0.0;stroke-dasharray:;"/><path d="M115.838,27.707 A0.3,0.3 0 0 1 116.038,27.907 L124.638,41.407 C125.848,46.434 129.015,49.317 134.138,50.057 A13.73,13.73 0 0 0 136.438,50.007 L134.038,61.407 C134.042,61.499 134.076,61.565 134.138,61.607 L133.938,62.007 C126.806,61.517 121.089,58.45 116.788,52.807 C112.302,46.24 111.336,39.173 113.888,31.607 C114.397,30.224 115.047,28.924 115.838,27.707 " fill="#0FA05F" style="stroke:;stroke-width:0.0;stroke-dasharray:;"/><path d="M116.038,27.907 A391.45,391.45 0 0 1 125.438,35.007 C124.515,37.057 124.248,39.19 124.638,41.407 " fill="#BE1817" style="stroke:;stroke-width:0.0;stroke-dasharray:;"/><path d="M137.138,29.107 A11.02,11.02 0 0 1 143.338,32.907 C146.108,36.775 146.358,40.808 144.088,45.007 A27.003,27.003 0 0 1 142.738,46.807 A11.44,11.44 0 0 1 136.438,50.007 A13.73,13.73 0 0 1 134.138,50.057 C129.015,49.317 125.848,46.434 124.638,41.407 C124.248,39.19 124.515,37.057 125.438,35.007 A15.172,15.172 0 0 1 126.988,32.607 C129.739,29.64 133.122,28.473 137.138,29.107 " fill="#FDFDFD" style="stroke:;stroke-width:0.0;stroke-dasharray:;"/><path d="M137.138,29.107 L154.638,29.107 L143.438,32.757 C143.382,32.795 143.349,32.845 143.338,32.907 A11.02,11.02 0 0 0 137.138,29.107 " fill="#E6B42C" style="stroke:;stroke-width:0.0;stroke-dasharray:;"/><path d="M154.638,29.107 L155.038,29.107 C157.49,33.919 158.173,38.986 157.088,44.307 C155.38,51.377 151.297,56.561 144.838,59.857 A22.36,22.36 0 0 1 133.938,62.007 L134.138,61.607 L142.738,46.807 A27.003,27.003 0 0 0 144.088,45.007 C146.358,40.808 146.108,36.775 143.338,32.907 C143.349,32.845 143.382,32.795 143.438,32.757 " fill="#FEC831" style="stroke:;stroke-width:0.0;stroke-dasharray:;"/><path d="M133.738,30.807 C137.561,30.494 140.511,31.927 142.588,35.107 C143.973,37.709 144.106,40.376 142.988,43.107 C140.91,47.021 137.66,48.671 133.238,48.057 C129.402,47.054 127.118,44.604 126.388,40.707 C126.169,35.407 128.619,32.107 133.738,30.807 " fill="#367BF0" style="stroke:;stroke-width:0.0;stroke-dasharray:;"/><path d="M142.738,46.807 L134.138,61.607 C134.076,61.565 134.042,61.499 134.038,61.407 L136.438,50.007 A11.44,11.44 0 0 0 142.738,46.807 " fill="#139156" style="stroke:;stroke-width:0.0;stroke-dasharray:;"/><text fill="#000000" font-family="sans-serif" font-size="14" lengthAdjust="spacing" textLength="51" x="111.5" y="77.1074">Browser</text><rect fill="none" height="77.6211" rx="2.5" ry="2.5" style="stroke:none;stroke-width:0.5;" width="69" x="100.5" y="232.7852"/><path d="M155.038,251.8922 L154.638,251.8922 L137.138,251.8922 C133.122,251.2582 129.739,252.4252 126.988,255.3922 A15.172,15.172 0 0 0 125.438,257.7922 A391.45,391.45 0 0 0 116.038,250.6922 A0.3,0.3 0 0 0 115.838,250.4922 C119.336,244.9722 124.303,241.5222 130.738,240.1422 C139.254,238.7912 146.404,241.2752 152.188,247.5922 A20.62,20.62 0 0 1 155.038,251.8922 " fill="#D31A1A" style="stroke:;stroke-width:0.0;stroke-dasharray:;"/><path d="M115.838,250.4922 A0.3,0.3 0 0 1 116.038,250.6922 L124.638,264.1922 C125.848,269.2192 129.015,272.1022 134.138,272.8422 A13.73,13.73 0 0 0 136.438,272.7922 L134.038,284.1922 C134.042,284.2842 134.076,284.3502 134.138,284.3922 L133.938,284.7922 C126.806,284.3022 121.089,281.2352 116.788,275.5922 C112.302,269.0252 111.336,261.9582 113.888,254.3922 C114.397,253.0092 115.047,251.7092 115.838,250.4922 " fill="#0FA05F" style="stroke:;stroke-width:0.0;stroke-dasharray:;"/><path d="M116.038,250.6922 A391.45,391.45 0 0 1 125.438,257.7922 C124.515,259.8422 124.248,261.9752 124.638,264.1922 " fill="#BE1817" style="stroke:;stroke-width:0.0;stroke-dasharray:;"/><path d="M137.138,251.8922 A11.02,11.02 0 0 1 143.338,255.6922 C146.108,259.5602 146.358,263.5932 144.088,267.7922 A27.003,27.003 0 0 1 142.738,269.5922 A11.44,11.44 0 0 1 136.438,272.7922 A13.73,13.73 0 0 1 134.138,272.8422 C129.015,272.1022 125.848,269.2192 124.638,264.1922 C124.248,261.9752 124.515,259.8422 125.438,257.7922 A15.172,15.172 0 0 1 126.988,255.3922 C129.739,252.4252 133.122,251.2582 137.138,251.8922 " fill="#FDFDFD" style="stroke:;stroke-width:0.0;stroke-dasharray:;"/><path d="M137.138,251.8922 L154.638,251.8922 L143.438,255.5422 C143.382,255.5802 143.349,255.6302 143.338,255.6922 A11.02,11.02 0 0 0 137.138,251.8922 " fill="#E6B42C" style="stroke:;stroke-width:0.0;stroke-dasharray:;"/><path d="M154.638,251.8922 L155.038,251.8922 C157.49,256.7042 158.173,261.7712 157.088,267.0922 C155.38,274.1622 151.297,279.3462 144.838,282.6422 A22.36,22.36 0 0 1 133.938,284.7922 L134.138,284.3922 L142.738,269.5922 A27.003,27.003 0 0 0 144.088,267.7922 C146.358,263.5932 146.108,259.5602 143.338,255.6922 C143.349,255.6302 143.382,255.5802 143.438,255.5422 " fill="#FEC831" style="stroke:;stroke-width:0.0;stroke-dasharray:;"/><path d="M133.738,253.5922 C137.561,253.2792 140.511,254.7122 142.588,257.8922 C143.973,260.4942 144.106,263.1612 142.988,265.8922 C140.91,269.8062 137.66,271.4562 133.238,270.8422 C129.402,269.8392 127.118,267.3892 126.388,263.4922 C126.169,258.1922 128.619,254.8922 133.738,253.5922 " fill="#367BF0" style="stroke:;stroke-width:0.0;stroke-dasharray:;"/><path d="M142.738,269.5922 L134.138,284.3922 C134.076,284.3502 134.042,284.2842 134.038,284.1922 L136.438,272.7922 A11.44,11.44 0 0 0 142.738,269.5922 " fill="#139156" style="stroke:;stroke-width:0.0;stroke-dasharray:;"/><text fill="#000000" font-family="sans-serif" font-size="14" lengthAdjust="spacing" textLength="51" x="111.5" y="299.8926">Browser</text><rect fill="none" height="79.6211" rx="2.5" ry="2.5" style="stroke:none;stroke-width:0.5;" width="98" x="219" y="8"/><path d="M267.921,15 C265.966,15.009 264.099,15.176 262.457,15.467 C257.618,16.322 256.739,18.111 256.739,21.411 L256.739,25.769 L268.174,25.769 L268.174,27.221 L256.74,27.221 L252.448,27.221 C249.125,27.221 246.215,29.218 245.305,33.018 C244.255,37.373 244.208,40.092 245.305,44.639 C246.118,48.024 248.059,50.436 251.382,50.436 L255.314,50.436 L255.314,45.212 C255.314,41.437 258.579,38.109 262.457,38.109 L273.878,38.109 C277.057,38.109 279.595,35.491 279.595,32.298 L279.595,21.411 C279.595,18.312 276.981,15.984 273.878,15.467 C271.914,15.14 269.876,14.991 267.921,15 M261.737,18.505 C262.918,18.505 263.883,19.485 263.883,20.69 C263.883,21.895 262.918,22.862 261.737,22.862 C260.556,22.862 259.591,21.891 259.591,20.69 C259.591,19.489 260.552,18.505 261.737,18.505 " fill="#306998" style="stroke:;stroke-width:0.0;stroke-dasharray:;"/><path d="M281.022,27.222 L281.022,32.3 C281.022,36.237 277.685,39.55 273.879,39.55 L262.457,39.55 C259.329,39.55 256.74,42.227 256.74,45.361 L256.74,56.25 C256.74,59.349 259.435,61.172 262.457,62.061 C266.076,63.125 269.548,63.318 273.878,62.061 C276.757,61.228 279.595,59.55 279.595,56.25 L279.595,51.892 L268.174,51.892 L268.174,50.44 L279.595,50.44 L285.312,50.44 C288.635,50.44 289.873,48.122 291.029,44.643 C292.223,41.061 292.172,37.616 291.029,33.022 C290.208,29.714 288.639,27.225 285.312,27.225 M274.598,54.795 C275.783,54.795 276.744,55.766 276.744,56.967 C276.744,58.168 275.783,59.152 274.598,59.152 C273.413,59.152 272.452,58.172 272.452,56.967 C272.452,55.762 273.417,54.795 274.598,54.795 " fill="#FFD43B" style="stroke:;stroke-width:0.0;stroke-dasharray:;"/><text fill="#000000" font-family="sans-serif" font-size="14" lengthAdjust="spacing" textLength="80" x="230" y="77.1074">Web Service</text><rect fill="none" height="79.6211" rx="2.5" ry="2.5" style="stroke:none;stroke-width:0.5;" width="98" x="219" y="232.7852"/><path d="M267.921,239.7852 C265.966,239.7942 264.099,239.9612 262.457,240.2522 C257.618,241.1072 256.739,242.8962 256.739,246.1962 L256.739,250.5542 L268.174,250.5542 L268.174,252.0062 L256.74,252.0062 L252.448,252.0062 C249.125,252.0062 246.215,254.0032 245.305,257.8032 C244.255,262.1582 244.208,264.8772 245.305,269.4242 C246.118,272.8092 248.059,275.2212 251.382,275.2212 L255.314,275.2212 L255.314,269.9972 C255.314,266.2222 258.579,262.8942 262.457,262.8942 L273.878,262.8942 C277.057,262.8942 279.595,260.2762 279.595,257.0832 L279.595,246.1962 C279.595,243.0972 276.981,240.7692 273.878,240.2522 C271.914,239.9252 269.876,239.7762 267.921,239.7852 M261.737,243.2902 C262.918,243.2902 263.883,244.2702 263.883,245.4752 C263.883,246.6802 262.918,247.6472 261.737,247.6472 C260.556,247.6472 259.591,246.6762 259.591,245.4752 C259.591,244.2742 260.552,243.2902 261.737,243.2902 " fill="#306998" style="stroke:;stroke-width:0.0;stroke-dasharray:;"/><path d="M281.022,252.0072 L281.022,257.0852 C281.022,261.0222 277.685,264.3352 273.879,264.3352 L262.457,264.3352 C259.329,264.3352 256.74,267.0122 256.74,270.1462 L256.74,281.0352 C256.74,284.1342 259.435,285.9572 262.457,286.8462 C266.076,287.9102 269.548,288.1032 273.878,286.8462 C276.757,286.0132 279.595,284.3352 279.595,281.0352 L279.595,276.6772 L268.174,276.6772 L268.174,275.2252 L279.595,275.2252 L285.312,275.2252 C288.635,275.2252 289.873,272.9072 291.029,269.4282 C292.223,265.8462 292.172,262.4012 291.029,257.8072 C290.208,254.4992 288.639,252.0102 285.312,252.0102 M274.598,279.5802 C275.783,279.5802 276.744,280.5512 276.744,281.7522 C276.744,282.9532 275.783,283.9372 274.598,283.9372 C273.413,283.9372 272.452,282.9572 272.452,281.7522 C272.452,280.5472 273.417,279.5802 274.598,279.5802 " fill="#FFD43B" style="stroke:;stroke-width:0.0;stroke-dasharray:;"/><text fill="#000000" font-family="sans-serif" font-size="14" lengthAdjust="spacing" textLength="80" x="230" y="301.8926">Web Service</text><rect fill="none" height="79.6211" rx="2.5" ry="2.5" style="stroke:none;stroke-width:0.5;" width="114" x="327" y="8"/><path d="M383.921,15 C381.966,15.009 380.099,15.176 378.457,15.467 C373.618,16.322 372.739,18.111 372.739,21.411 L372.739,25.769 L384.174,25.769 L384.174,27.221 L372.74,27.221 L368.448,27.221 C365.125,27.221 362.215,29.218 361.305,33.018 C360.255,37.373 360.208,40.092 361.305,44.639 C362.118,48.024 364.059,50.436 367.382,50.436 L371.314,50.436 L371.314,45.212 C371.314,41.437 374.579,38.109 378.457,38.109 L389.878,38.109 C393.057,38.109 395.595,35.491 395.595,32.298 L395.595,21.411 C395.595,18.312 392.981,15.984 389.878,15.467 C387.914,15.14 385.876,14.991 383.921,15 M377.737,18.505 C378.918,18.505 379.883,19.485 379.883,20.69 C379.883,21.895 378.918,22.862 377.737,22.862 C376.556,22.862 375.591,21.891 375.591,20.69 C375.591,19.489 376.552,18.505 377.737,18.505 " fill="#306998" style="stroke:;stroke-width:0.0;stroke-dasharray:;"/><path d="M397.022,27.222 L397.022,32.3 C397.022,36.237 393.685,39.55 389.879,39.55 L378.457,39.55 C375.329,39.55 372.74,42.227 372.74,45.361 L372.74,56.25 C372.74,59.349 375.435,61.172 378.457,62.061 C382.076,63.125 385.548,63.318 389.878,62.061 C392.757,61.228 395.595,59.55 395.595,56.25 L395.595,51.892 L384.174,51.892 L384.174,50.44 L395.595,50.44 L401.312,50.44 C404.635,50.44 405.873,48.122 407.029,44.643 C408.223,41.061 408.172,37.616 407.029,33.022 C406.208,29.714 404.639,27.225 401.312,27.225 M390.598,54.795 C391.783,54.795 392.744,55.766 392.744,56.967 C392.744,58.168 391.783,59.152 390.598,59.152 C389.413,59.152 388.452,58.172 388.452,56.967 C388.452,55.762 389.417,54.795 390.598,54.795 " fill="#FFD43B" style="stroke:;stroke-width:0.0;stroke-dasharray:;"/><text fill="#000000" font-family="sans-serif" font-size="14" lengthAdjust="spacing" textLength="96" x="338" y="77.1074">Dico Messages</text><rect fill="none" height="79.6211" rx="2.5" ry="2.5" style="stroke:none;stroke-width:0.5;" width="114" x="327" y="232.7852"/><path d="M383.921,239.7852 C381.966,239.7942 380.099,239.9612 378.457,240.2522 C373.618,241.1072 372.739,242.8962 372.739,246.1962 L372.739,250.5542 L384.174,250.5542 L384.174,252.0062 L372.74,252.0062 L368.448,252.0062 C365.125,252.0062 362.215,254.0032 361.305,257.8032 C360.255,262.1582 360.208,264.8772 361.305,269.4242 C362.118,272.8092 364.059,275.2212 367.382,275.2212 L371.314,275.2212 L371.314,269.9972 C371.314,266.2222 374.579,262.8942 378.457,262.8942 L389.878,262.8942 C393.057,262.8942 395.595,260.2762 395.595,257.0832 L395.595,246.1962 C395.595,243.0972 392.981,240.7692 389.878,240.2522 C387.914,239.9252 385.876,239.7762 383.921,239.7852 M377.737,243.2902 C378.918,243.2902 379.883,244.2702 379.883,245.4752 C379.883,246.6802 378.918,247.6472 377.737,247.6472 C376.556,247.6472 375.591,246.6762 375.591,245.4752 C375.591,244.2742 376.552,243.2902 377.737,243.2902 " fill="#306998" style="stroke:;stroke-width:0.0;stroke-dasharray:;"/><path d="M397.022,252.0072 L397.022,257.0852 C397.022,261.0222 393.685,264.3352 389.879,264.3352 L378.457,264.3352 C375.329,264.3352 372.74,267.0122 372.74,270.1462 L372.74,281.0352 C372.74,284.1342 375.435,285.9572 378.457,286.8462 C382.076,287.9102 385.548,288.1032 389.878,286.8462 C392.757,286.0132 395.595,284.3352 395.595,281.0352 L395.595,276.6772 L384.174,276.6772 L384.174,275.2252 L395.595,275.2252 L401.312,275.2252 C404.635,275.2252 405.873,272.9072 407.029,269.4282 C408.223,265.8462 408.172,262.4012 407.029,257.8072 C406.208,254.4992 404.639,252.0102 401.312,252.0102 M390.598,279.5802 C391.783,279.5802 392.744,280.5512 392.744,281.7522 C392.744,282.9532 391.783,283.9372 390.598,283.9372 C389.413,283.9372 388.452,282.9572 388.452,281.7522 C388.452,280.5472 389.417,279.5802 390.598,279.5802 " fill="#FFD43B" style="stroke:;stroke-width:0.0;stroke-dasharray:;"/><text fill="#000000" font-family="sans-serif" font-size="14" lengthAdjust="spacing" textLength="96" x="338" y="301.8926">Dico Messages</text><rect fill="#FFFFFF" height="126.1641" style="stroke:#181818;stroke-width:1.0;" width="10" x="30" y="98.6211"/><rect fill="#FFFFFF" height="93.873" style="stroke:#181818;stroke-width:1.0;" width="10" x="130" y="121.9121"/><rect fill="#FFFFFF" height="31.291" style="stroke:#181818;stroke-width:1.0;" width="10" x="263" y="153.2031"/><polygon fill="#181818" points="118,117.9121,128,121.9121,118,125.9121,122,121.9121" style="stroke:#181818;stroke-width:1.0;"/><line style="stroke:#181818;stroke-width:1.0;" x1="40" x2="124" y1="121.9121" y2="121.9121"/><text fill="#000000" font-family="sans-serif" font-size="13" font-weight="bold" lengthAdjust="spacing" textLength="7" x="47" y="116.6494">1</text><text fill="#000000" font-family="sans-serif" font-size="13" lengthAdjust="spacing" textLength="60" x="58" y="116.6494">accesURL</text><polygon fill="#181818" points="251,149.2031,261,153.2031,251,157.2031,255,153.2031" style="stroke:#181818;stroke-width:1.0;"/><line style="stroke:#181818;stroke-width:1.0;" x1="140" x2="257" y1="153.2031" y2="153.2031"/><text fill="#000000" font-family="sans-serif" font-size="13" font-weight="bold" lengthAdjust="spacing" textLength="7" x="147" y="147.9404">2</text><text fill="#000000" font-family="sans-serif" font-size="13" lengthAdjust="spacing" textLength="67" x="158" y="147.9404">requeteHttp</text><polygon fill="#181818" points="151,180.4941,141,184.4941,151,188.4941,147,184.4941" style="stroke:#181818;stroke-width:1.0;"/><line style="stroke:#181818;stroke-width:1.0;stroke-dasharray:2.0,2.0;" x1="145" x2="267" y1="184.4941" y2="184.4941"/><text fill="#000000" font-family="sans-serif" font-size="13" font-weight="bold" lengthAdjust="spacing" textLength="7" x="157" y="179.2314">3</text><text fill="#000000" font-family="sans-serif" font-size="13" lengthAdjust="spacing" textLength="88" x="168" y="179.2314">redirectHttpIDP</text><polygon fill="#181818" points="51,211.7852,41,215.7852,51,219.7852,47,215.7852" style="stroke:#181818;stroke-width:1.0;"/><line style="stroke:#181818;stroke-width:1.0;stroke-dasharray:2.0,2.0;" x1="45" x2="134" y1="215.7852" y2="215.7852"/><text fill="#000000" font-family="sans-serif" font-size="13" font-weight="bold" lengthAdjust="spacing" textLength="7" x="57" y="210.5225">4</text><text fill="#000000" font-family="sans-serif" font-size="13" lengthAdjust="spacing" textLength="55" x="68" y="210.5225">pageHtml</text><!--SRC=[TP1DQm8n48Rl-HMZzBhz0I92YmSB2aj5Ul6IpGuwQ3uwcMpntvkuJHU4NZB9c-Sb3vcHCzVK8zXR4mCn2Rw6PAzgLY_YXLpGhEsOgxmNCXIq4vWlNr94NXqT7FASWuvGWcVer9WpUui5V6V_Kzbkt3_ZuIPdxmhyXHtiaGSo-2XaU41-Qzl_Asio7dOOepvXV9Jwd2YbatYNR9UVomSZD6Z1qROiqAogpWAqCHWFdzk9gwQ_iz1_BWjW_4uek149KsLoLOoIs6Mi9qOZXVjOjpKEsNGZvM_l]--></g></svg>